<svg width="190" height="40" viewBox="0 0 190 40" fill="none" xmlns="http://www.w3.org/2000/svg">
<path d="M39.4259 24.7625C36.8132 35.2419 26.1994 41.6195 15.7188 39.0062C5.24245 36.3936 -1.13516 25.7791 1.47872 15.3003C4.09016 4.81971 14.704 -1.55851 25.1816 1.05415C35.6616 3.66681 42.0386 14.2825 39.4259 24.7625Z" fill="#F7931A"/>
<path d="M29.0736 17.2436C29.463 14.6407 27.4812 13.2415 24.7714 12.308L25.6504 8.7821L23.5042 8.24722L22.6483 11.6802C22.0841 11.5396 21.5046 11.407 20.9288 11.2756L21.7907 7.81993L19.6457 7.28505L18.766 10.8098C18.299 10.7034 17.8405 10.5983 17.3955 10.4876L17.398 10.4766L14.4381 9.73755L13.8671 12.0299C13.8671 12.0299 15.4596 12.3948 15.4259 12.4175C16.2952 12.6345 16.4523 13.2097 16.426 13.6657L15.4247 17.6825C15.4846 17.6978 15.5623 17.7198 15.6478 17.754C15.5763 17.7363 15.4999 17.7167 15.421 17.6978L14.0175 23.3247C13.9111 23.5888 13.6416 23.9849 13.0339 23.8346C13.0553 23.8657 11.4739 23.4452 11.4739 23.4452L10.4084 25.9019L13.2014 26.5982C13.721 26.7284 14.2302 26.8647 14.7315 26.9931L13.8433 30.5594L15.9871 31.0943L16.8667 27.5659C17.4524 27.7248 18.0209 27.8715 18.5771 28.0097L17.7005 31.5216L19.8468 32.0564L20.735 28.4969C24.3948 29.1895 27.1468 28.9101 28.3052 25.6C29.2387 22.9347 28.2588 21.3973 26.3332 20.3948C27.7355 20.0714 28.7918 19.149 29.0736 17.2436V17.2436ZM24.1699 24.12C23.5066 26.7853 19.0191 25.3445 17.5642 24.9832L18.7428 20.2585C20.1977 20.6216 24.8631 21.3405 24.1699 24.12V24.12ZM24.8337 17.2051C24.2285 19.6295 20.4935 18.3977 19.282 18.0958L20.3505 13.8106C21.5621 14.1126 25.464 14.6762 24.8337 17.2051V17.2051Z" fill="white"/>
<path d="M58.2146 12.3068C59.8009 12.3068 61.1714 12.5911 62.3231 13.1492C63.4802 13.7128 64.4351 14.472 65.201 15.4269C65.9566 16.3866 66.519 17.5083 66.8821 18.7938C67.2428 20.0831 67.4237 21.4689 67.4237 22.9525C67.4237 25.2314 67.0062 27.3843 66.1632 29.4138C65.3202 31.4464 64.1765 33.2093 62.7216 34.7131C61.268 36.2151 59.5515 37.3991 57.5721 38.2739C55.5958 39.1493 53.4471 39.5869 51.1401 39.5869C50.8418 39.5869 50.3173 39.5784 49.5764 39.5631C48.8355 39.5478 47.984 39.4714 47.0304 39.3424C46.0706 39.2086 45.0559 39.0105 43.9843 38.7452C42.9133 38.4848 41.8961 38.1198 40.9382 37.6565L49.5037 1.66605L57.1754 0.477089L54.1085 13.2488C54.7651 12.9529 55.4265 12.7237 56.0867 12.5568C56.7475 12.3924 57.4566 12.3068 58.2146 12.3068V12.3068ZM51.7795 33.5009C52.9348 33.5009 54.0236 33.2167 55.0463 32.6586C56.072 32.0998 56.9571 31.3455 57.6986 30.406C58.4401 29.4621 59.027 28.3991 59.4549 27.2113C59.8828 26.0236 60.0992 24.7845 60.0992 23.4953C60.0992 21.9114 59.8345 20.676 59.307 19.7829C58.7794 18.8935 57.8032 18.446 56.3856 18.446C55.921 18.446 55.3225 18.5347 54.5804 18.693C53.8359 18.8611 53.1696 19.2101 52.5724 19.7352L49.3068 33.2986C49.5037 33.3334 49.6779 33.3664 49.8264 33.3976C49.9719 33.4312 50.1327 33.4551 50.2928 33.4716C50.4622 33.4905 50.6559 33.5003 50.8901 33.5003C51.1242 33.5003 51.417 33.5009 51.7795 33.5009V33.5009Z" fill="black"/>
<path d="M75.3815 38.895H68.054L74.2421 12.8558H81.6197L75.3815 38.895V38.895ZM78.9472 9.68315C77.9245 9.68315 76.9972 9.37873 76.1744 8.76866C75.3448 8.16226 74.9341 7.22881 74.9341 5.97077C74.9341 5.27879 75.0747 4.6296 75.3534 4.01708C75.6364 3.40579 76.0063 2.87947 76.4696 2.432C76.9324 1.9882 77.4685 1.63366 78.0773 1.36652C78.6898 1.10366 79.3415 0.972237 80.0359 0.972237C81.058 0.972237 81.9804 1.27666 82.8063 1.88673C83.6291 2.49986 84.0429 3.4333 84.0429 4.68462C84.0429 5.37904 83.9029 6.03068 83.6217 6.64197C83.3424 7.25326 82.9725 7.77959 82.5092 8.22705C82.0501 8.67146 81.5091 9.02479 80.9015 9.28948C80.2884 9.55661 79.6392 9.68315 78.9472 9.68315V9.68315Z" fill="black"/>
<path d="M88.04 6.36934L95.7148 5.18037L93.8302 12.8558H102.05L100.565 18.8941H92.3955L90.2193 28.0024C90.0188 28.7616 89.9051 29.4707 89.8733 30.1296C89.8372 30.7917 89.921 31.3602 90.119 31.8388C90.3159 32.3187 90.6698 32.6885 91.1833 32.9502C91.6943 33.2161 92.426 33.3499 93.3858 33.3499C94.1762 33.3499 94.9464 33.2747 95.6909 33.1256C96.4312 32.9789 97.1813 32.7747 97.9405 32.5076L98.487 38.1535C97.4967 38.5166 96.4245 38.8289 95.2692 39.0918C94.112 39.3583 92.7421 39.4867 91.1588 39.4867C88.8824 39.4867 87.1176 39.1487 85.8601 38.4756C84.6045 37.7977 83.717 36.8716 83.1857 35.6991C82.6619 34.531 82.4277 33.1843 82.4931 31.667C82.561 30.1462 82.7902 28.5476 83.1857 26.8641L88.04 6.36934Z" fill="black"/>
<path d="M101.726 28.4999C101.726 26.2571 102.089 24.142 102.815 22.1621C103.539 20.1803 104.583 18.4472 105.937 16.96C107.286 15.48 108.93 14.3076 110.865 13.4469C112.79 12.5911 114.946 12.1595 117.322 12.1595C118.809 12.1595 120.138 12.3001 121.307 12.5819C122.48 12.8661 123.542 13.2335 124.502 13.6945L121.975 19.4406C121.315 19.1728 120.63 18.9369 119.921 18.7229C119.212 18.5047 118.347 18.3996 117.323 18.3996C114.877 18.3996 112.944 19.2425 111.505 20.923C110.071 22.6046 109.349 24.8683 109.349 27.7077C109.349 29.3906 109.712 30.7513 110.441 31.7924C111.166 32.8334 112.505 33.3512 114.45 33.3512C115.409 33.3512 116.336 33.2509 117.223 33.0553C118.116 32.8572 118.905 32.6078 119.601 32.3132L120.148 38.2036C119.221 38.563 118.199 38.8876 117.078 39.1719C115.954 39.4464 114.617 39.5888 113.066 39.5888C111.019 39.5888 109.286 39.2893 107.868 38.6994C106.45 38.1003 105.278 37.305 104.355 36.2976C103.427 35.2877 102.761 34.1086 102.349 32.7552C101.937 31.403 101.726 29.9823 101.726 28.4999V28.4999Z" fill="black"/>
<path d="M134.276 39.5876C132.528 39.5876 131.008 39.321 129.72 38.7935C128.435 38.2659 127.371 37.5257 126.529 36.5659C125.686 35.6111 125.055 34.4796 124.623 33.1757C124.191 31.8724 123.983 30.4292 123.983 28.8478C123.983 26.8641 124.301 24.8811 124.945 22.9036C125.586 20.9218 126.536 19.1411 127.794 17.5584C129.043 15.9733 130.582 14.6774 132.396 13.6669C134.207 12.6632 136.29 12.1583 138.63 12.1583C140.347 12.1583 141.858 12.4254 143.165 12.9529C144.465 13.4793 145.536 14.2257 146.382 15.1805C147.22 16.1402 147.856 17.2668 148.284 18.5726C148.715 19.8734 148.928 21.3203 148.928 22.903C148.928 24.8805 148.614 26.8635 147.99 28.8472C147.366 30.821 146.44 32.606 145.217 34.1923C143.997 35.7749 142.471 37.0703 140.639 38.0764C138.809 39.0826 136.686 39.5876 134.276 39.5876V39.5876ZM137.939 18.399C136.852 18.399 135.892 18.7144 135.07 19.3373C134.245 19.9675 133.551 20.7598 132.993 21.7152C132.428 22.6749 132.009 23.7215 131.726 24.8591C131.446 25.9991 131.308 27.0769 131.308 28.1008C131.308 29.7531 131.575 31.0399 132.098 31.966C132.63 32.8872 133.584 33.3505 134.971 33.3505C136.061 33.3505 137.016 33.0376 137.843 32.4079C138.664 31.7826 139.358 30.9897 139.921 30.0325C140.482 29.0776 140.904 28.028 141.187 26.8886C141.464 25.7522 141.605 24.6684 141.605 23.6463C141.605 21.9982 141.34 20.7084 140.811 19.7835C140.283 18.8623 139.325 18.399 137.939 18.399V18.399Z" fill="black"/>
<path d="M156.915 38.895H149.581L155.769 12.8558H163.151L156.915 38.895V38.895ZM160.475 9.68315C159.453 9.68315 158.526 9.37873 157.705 8.76866C156.88 8.16226 156.465 7.22881 156.465 5.97077C156.465 5.27879 156.608 4.6296 156.887 4.01708C157.166 3.40579 157.539 2.87947 158.002 2.432C158.462 1.9882 159.003 1.63366 159.611 1.36652C160.22 1.10366 160.871 0.972237 161.563 0.972237C162.588 0.972237 163.513 1.27666 164.337 1.88673C165.162 2.49986 165.578 3.4333 165.578 4.68462C165.578 5.37904 165.43 6.03068 165.153 6.64197C164.876 7.25326 164.504 7.77959 164.043 8.22705C163.578 8.67146 163.044 9.02479 162.435 9.28948C161.821 9.55661 161.171 9.68315 160.475 9.68315V9.68315Z" fill="black"/>
<path d="M168.429 14.0423C168.985 13.8797 169.606 13.6841 170.282 13.4713C170.96 13.2586 171.717 13.0605 172.563 12.882C173.4 12.698 174.344 12.5489 175.383 12.4333C176.421 12.3154 177.605 12.2579 178.92 12.2579C182.784 12.2579 185.448 13.3833 186.919 15.6274C188.389 17.8714 188.643 20.9425 187.689 24.8352L184.319 38.895H176.943L180.21 25.1311C180.409 24.2716 180.565 23.4409 180.681 22.6291C180.798 21.8246 180.791 21.1155 180.655 20.5018C180.524 19.8954 180.218 19.399 179.741 19.0145C179.258 18.6361 178.527 18.446 177.536 18.446C176.581 18.446 175.609 18.5487 174.617 18.7468L169.814 38.8944H162.435L168.429 14.0423V14.0423Z" fill="black"/>
</svg>
