<svg width="122" height="38" viewBox="0 0 122 38" fill="none" xmlns="http://www.w3.org/2000/svg">
<circle cx="13.0952" cy="22.0952" r="13.0952" fill="#8345E7"/>
<circle cx="19.9048" cy="22.0952" r="13.0952" fill="black"/>
<path d="M54.2 32H60.28L67.416 16H62.072L57.464 28.096H57.016L52.408 16H47.064L54.2 32ZM69.2312 24C69.2312 29.024 73.1672 32.48 78.7992 32.48C84.4313 32.48 88.3673 29.024 88.3673 24C88.3673 18.976 84.4313 15.52 78.7992 15.52C73.1672 15.52 69.2312 18.976 69.2312 24ZM74.1592 24C74.1592 21.184 75.8232 19.552 78.7992 19.552C81.7753 19.552 83.4392 21.184 83.4392 24C83.4392 26.816 81.7753 28.448 78.7992 28.448C75.8232 28.448 74.1592 26.816 74.1592 24ZM91.4935 11.584C91.4935 13.12 92.9655 14.304 95.0135 14.304C97.0615 14.304 98.5335 13.12 98.5335 11.584C98.5335 10.048 97.0615 8.864 95.0135 8.864C92.9655 8.864 91.4935 10.048 91.4935 11.584ZM97.4135 16H92.6135V32H97.4135V16ZM120.736 10.56H115.936V17.952H115.616C114.528 16.576 112.608 15.52 109.952 15.52C105.312 15.52 101.664 18.944 101.664 24C101.664 29.056 105.312 32.48 109.952 32.48C112.608 32.48 114.592 31.424 115.68 30.048H116L116.32 32H120.736V10.56ZM116.032 24C116.032 26.624 114.336 28.448 111.296 28.448C108.256 28.448 106.56 26.816 106.56 24C106.56 21.184 108.256 19.552 111.296 19.552C114.336 19.552 116.032 21.376 116.032 24Z" fill="black"/>
</svg>
